%TF.GenerationSoftware,KiCad,Pcbnew,(6.0.8)*%
%TF.CreationDate,2022-10-13T10:33:28+07:00*%
%TF.ProjectId,1_trial,315f7472-6961-46c2-9e6b-696361645f70,rev?*%
%TF.SameCoordinates,Original*%
%TF.FileFunction,Legend,Top*%
%TF.FilePolarity,Positive*%
%FSLAX46Y46*%
G04 Gerber Fmt 4.6, Leading zero omitted, Abs format (unit mm)*
G04 Created by KiCad (PCBNEW (6.0.8)) date 2022-10-13 10:33:28*
%MOMM*%
%LPD*%
G01*
G04 APERTURE LIST*
%ADD10C,0.150000*%
%ADD11C,0.200000*%
%ADD12C,0.120000*%
G04 APERTURE END LIST*
D10*
X99748809Y-60052380D02*
X99748809Y-59052380D01*
X100177380Y-59147619D02*
X100225000Y-59100000D01*
X100320238Y-59052380D01*
X100558333Y-59052380D01*
X100653571Y-59100000D01*
X100701190Y-59147619D01*
X100748809Y-59242857D01*
X100748809Y-59338095D01*
X100701190Y-59480952D01*
X100129761Y-60052380D01*
X100748809Y-60052380D01*
X101748809Y-59957142D02*
X101701190Y-60004761D01*
X101558333Y-60052380D01*
X101463095Y-60052380D01*
X101320238Y-60004761D01*
X101225000Y-59909523D01*
X101177380Y-59814285D01*
X101129761Y-59623809D01*
X101129761Y-59480952D01*
X101177380Y-59290476D01*
X101225000Y-59195238D01*
X101320238Y-59100000D01*
X101463095Y-59052380D01*
X101558333Y-59052380D01*
X101701190Y-59100000D01*
X101748809Y-59147619D01*
X122763095Y-36102380D02*
X122763095Y-36911904D01*
X122810714Y-37007142D01*
X122858333Y-37054761D01*
X122953571Y-37102380D01*
X123144047Y-37102380D01*
X123239285Y-37054761D01*
X123286904Y-37007142D01*
X123334523Y-36911904D01*
X123334523Y-36102380D01*
X123763095Y-37054761D02*
X123905952Y-37102380D01*
X124144047Y-37102380D01*
X124239285Y-37054761D01*
X124286904Y-37007142D01*
X124334523Y-36911904D01*
X124334523Y-36816666D01*
X124286904Y-36721428D01*
X124239285Y-36673809D01*
X124144047Y-36626190D01*
X123953571Y-36578571D01*
X123858333Y-36530952D01*
X123810714Y-36483333D01*
X123763095Y-36388095D01*
X123763095Y-36292857D01*
X123810714Y-36197619D01*
X123858333Y-36150000D01*
X123953571Y-36102380D01*
X124191666Y-36102380D01*
X124334523Y-36150000D01*
X125096428Y-36578571D02*
X125239285Y-36626190D01*
X125286904Y-36673809D01*
X125334523Y-36769047D01*
X125334523Y-36911904D01*
X125286904Y-37007142D01*
X125239285Y-37054761D01*
X125144047Y-37102380D01*
X124763095Y-37102380D01*
X124763095Y-36102380D01*
X125096428Y-36102380D01*
X125191666Y-36150000D01*
X125239285Y-36197619D01*
X125286904Y-36292857D01*
X125286904Y-36388095D01*
X125239285Y-36483333D01*
X125191666Y-36530952D01*
X125096428Y-36578571D01*
X124763095Y-36578571D01*
X101704761Y-29702380D02*
X101704761Y-30511904D01*
X101752380Y-30607142D01*
X101800000Y-30654761D01*
X101895238Y-30702380D01*
X102085714Y-30702380D01*
X102180952Y-30654761D01*
X102228571Y-30607142D01*
X102276190Y-30511904D01*
X102276190Y-29702380D01*
X102704761Y-30416666D02*
X103180952Y-30416666D01*
X102609523Y-30702380D02*
X102942857Y-29702380D01*
X103276190Y-30702380D01*
X104180952Y-30702380D02*
X103847619Y-30226190D01*
X103609523Y-30702380D02*
X103609523Y-29702380D01*
X103990476Y-29702380D01*
X104085714Y-29750000D01*
X104133333Y-29797619D01*
X104180952Y-29892857D01*
X104180952Y-30035714D01*
X104133333Y-30130952D01*
X104085714Y-30178571D01*
X103990476Y-30226190D01*
X103609523Y-30226190D01*
X104466666Y-29702380D02*
X105038095Y-29702380D01*
X104752380Y-30702380D02*
X104752380Y-29702380D01*
D11*
X112678571Y-30880952D02*
X112857142Y-30940476D01*
X113154761Y-30940476D01*
X113273809Y-30880952D01*
X113333333Y-30821428D01*
X113392857Y-30702380D01*
X113392857Y-30583333D01*
X113333333Y-30464285D01*
X113273809Y-30404761D01*
X113154761Y-30345238D01*
X112916666Y-30285714D01*
X112797619Y-30226190D01*
X112738095Y-30166666D01*
X112678571Y-30047619D01*
X112678571Y-29928571D01*
X112738095Y-29809523D01*
X112797619Y-29750000D01*
X112916666Y-29690476D01*
X113214285Y-29690476D01*
X113392857Y-29750000D01*
X113809523Y-29690476D02*
X114107142Y-30940476D01*
X114345238Y-30047619D01*
X114583333Y-30940476D01*
X114880952Y-29690476D01*
X115357142Y-30940476D02*
X115357142Y-29690476D01*
X115654761Y-29690476D01*
X115833333Y-29750000D01*
X115952380Y-29869047D01*
X116011904Y-29988095D01*
X116071428Y-30226190D01*
X116071428Y-30404761D01*
X116011904Y-30642857D01*
X115952380Y-30761904D01*
X115833333Y-30880952D01*
X115654761Y-30940476D01*
X115357142Y-30940476D01*
D10*
%TO.C,FB1*%
X101314266Y-52932071D02*
X100980933Y-52932071D01*
X100980933Y-53455880D02*
X100980933Y-52455880D01*
X101457123Y-52455880D01*
X102171409Y-52932071D02*
X102314266Y-52979690D01*
X102361885Y-53027309D01*
X102409504Y-53122547D01*
X102409504Y-53265404D01*
X102361885Y-53360642D01*
X102314266Y-53408261D01*
X102219028Y-53455880D01*
X101838076Y-53455880D01*
X101838076Y-52455880D01*
X102171409Y-52455880D01*
X102266647Y-52503500D01*
X102314266Y-52551119D01*
X102361885Y-52646357D01*
X102361885Y-52741595D01*
X102314266Y-52836833D01*
X102266647Y-52884452D01*
X102171409Y-52932071D01*
X101838076Y-52932071D01*
X103361885Y-53455880D02*
X102790457Y-53455880D01*
X103076171Y-53455880D02*
X103076171Y-52455880D01*
X102980933Y-52598738D01*
X102885695Y-52693976D01*
X102790457Y-52741595D01*
%TO.C,C10*%
X112307142Y-40207142D02*
X112259523Y-40254761D01*
X112116666Y-40302380D01*
X112021428Y-40302380D01*
X111878571Y-40254761D01*
X111783333Y-40159523D01*
X111735714Y-40064285D01*
X111688095Y-39873809D01*
X111688095Y-39730952D01*
X111735714Y-39540476D01*
X111783333Y-39445238D01*
X111878571Y-39350000D01*
X112021428Y-39302380D01*
X112116666Y-39302380D01*
X112259523Y-39350000D01*
X112307142Y-39397619D01*
X113259523Y-40302380D02*
X112688095Y-40302380D01*
X112973809Y-40302380D02*
X112973809Y-39302380D01*
X112878571Y-39445238D01*
X112783333Y-39540476D01*
X112688095Y-39588095D01*
X113878571Y-39302380D02*
X113973809Y-39302380D01*
X114069047Y-39350000D01*
X114116666Y-39397619D01*
X114164285Y-39492857D01*
X114211904Y-39683333D01*
X114211904Y-39921428D01*
X114164285Y-40111904D01*
X114116666Y-40207142D01*
X114069047Y-40254761D01*
X113973809Y-40302380D01*
X113878571Y-40302380D01*
X113783333Y-40254761D01*
X113735714Y-40207142D01*
X113688095Y-40111904D01*
X113640476Y-39921428D01*
X113640476Y-39683333D01*
X113688095Y-39492857D01*
X113735714Y-39397619D01*
X113783333Y-39350000D01*
X113878571Y-39302380D01*
%TO.C,R4*%
X98833333Y-35327380D02*
X98500000Y-34851190D01*
X98261904Y-35327380D02*
X98261904Y-34327380D01*
X98642857Y-34327380D01*
X98738095Y-34375000D01*
X98785714Y-34422619D01*
X98833333Y-34517857D01*
X98833333Y-34660714D01*
X98785714Y-34755952D01*
X98738095Y-34803571D01*
X98642857Y-34851190D01*
X98261904Y-34851190D01*
X99690476Y-34660714D02*
X99690476Y-35327380D01*
X99452380Y-34279761D02*
X99214285Y-34994047D01*
X99833333Y-34994047D01*
%TO.C,C2*%
X121883333Y-51382142D02*
X121835714Y-51429761D01*
X121692857Y-51477380D01*
X121597619Y-51477380D01*
X121454761Y-51429761D01*
X121359523Y-51334523D01*
X121311904Y-51239285D01*
X121264285Y-51048809D01*
X121264285Y-50905952D01*
X121311904Y-50715476D01*
X121359523Y-50620238D01*
X121454761Y-50525000D01*
X121597619Y-50477380D01*
X121692857Y-50477380D01*
X121835714Y-50525000D01*
X121883333Y-50572619D01*
X122264285Y-50572619D02*
X122311904Y-50525000D01*
X122407142Y-50477380D01*
X122645238Y-50477380D01*
X122740476Y-50525000D01*
X122788095Y-50572619D01*
X122835714Y-50667857D01*
X122835714Y-50763095D01*
X122788095Y-50905952D01*
X122216666Y-51477380D01*
X122835714Y-51477380D01*
%TO.C,C6*%
X100480933Y-39573142D02*
X100433314Y-39620761D01*
X100290457Y-39668380D01*
X100195219Y-39668380D01*
X100052361Y-39620761D01*
X99957123Y-39525523D01*
X99909504Y-39430285D01*
X99861885Y-39239809D01*
X99861885Y-39096952D01*
X99909504Y-38906476D01*
X99957123Y-38811238D01*
X100052361Y-38716000D01*
X100195219Y-38668380D01*
X100290457Y-38668380D01*
X100433314Y-38716000D01*
X100480933Y-38763619D01*
X101338076Y-38668380D02*
X101147600Y-38668380D01*
X101052361Y-38716000D01*
X101004742Y-38763619D01*
X100909504Y-38906476D01*
X100861885Y-39096952D01*
X100861885Y-39477904D01*
X100909504Y-39573142D01*
X100957123Y-39620761D01*
X101052361Y-39668380D01*
X101242838Y-39668380D01*
X101338076Y-39620761D01*
X101385695Y-39573142D01*
X101433314Y-39477904D01*
X101433314Y-39239809D01*
X101385695Y-39144571D01*
X101338076Y-39096952D01*
X101242838Y-39049333D01*
X101052361Y-39049333D01*
X100957123Y-39096952D01*
X100909504Y-39144571D01*
X100861885Y-39239809D01*
%TO.C,C11*%
X100932142Y-48632142D02*
X100884523Y-48679761D01*
X100741666Y-48727380D01*
X100646428Y-48727380D01*
X100503571Y-48679761D01*
X100408333Y-48584523D01*
X100360714Y-48489285D01*
X100313095Y-48298809D01*
X100313095Y-48155952D01*
X100360714Y-47965476D01*
X100408333Y-47870238D01*
X100503571Y-47775000D01*
X100646428Y-47727380D01*
X100741666Y-47727380D01*
X100884523Y-47775000D01*
X100932142Y-47822619D01*
X101884523Y-48727380D02*
X101313095Y-48727380D01*
X101598809Y-48727380D02*
X101598809Y-47727380D01*
X101503571Y-47870238D01*
X101408333Y-47965476D01*
X101313095Y-48013095D01*
X102836904Y-48727380D02*
X102265476Y-48727380D01*
X102551190Y-48727380D02*
X102551190Y-47727380D01*
X102455952Y-47870238D01*
X102360714Y-47965476D01*
X102265476Y-48013095D01*
%TO.C,D1*%
X125186904Y-55877380D02*
X125186904Y-54877380D01*
X125425000Y-54877380D01*
X125567857Y-54925000D01*
X125663095Y-55020238D01*
X125710714Y-55115476D01*
X125758333Y-55305952D01*
X125758333Y-55448809D01*
X125710714Y-55639285D01*
X125663095Y-55734523D01*
X125567857Y-55829761D01*
X125425000Y-55877380D01*
X125186904Y-55877380D01*
X126710714Y-55877380D02*
X126139285Y-55877380D01*
X126425000Y-55877380D02*
X126425000Y-54877380D01*
X126329761Y-55020238D01*
X126234523Y-55115476D01*
X126139285Y-55163095D01*
%TO.C,R2*%
X104108333Y-56652380D02*
X103775000Y-56176190D01*
X103536904Y-56652380D02*
X103536904Y-55652380D01*
X103917857Y-55652380D01*
X104013095Y-55700000D01*
X104060714Y-55747619D01*
X104108333Y-55842857D01*
X104108333Y-55985714D01*
X104060714Y-56080952D01*
X104013095Y-56128571D01*
X103917857Y-56176190D01*
X103536904Y-56176190D01*
X104489285Y-55747619D02*
X104536904Y-55700000D01*
X104632142Y-55652380D01*
X104870238Y-55652380D01*
X104965476Y-55700000D01*
X105013095Y-55747619D01*
X105060714Y-55842857D01*
X105060714Y-55938095D01*
X105013095Y-56080952D01*
X104441666Y-56652380D01*
X105060714Y-56652380D01*
%TO.C,C3*%
X110233333Y-52757142D02*
X110185714Y-52804761D01*
X110042857Y-52852380D01*
X109947619Y-52852380D01*
X109804761Y-52804761D01*
X109709523Y-52709523D01*
X109661904Y-52614285D01*
X109614285Y-52423809D01*
X109614285Y-52280952D01*
X109661904Y-52090476D01*
X109709523Y-51995238D01*
X109804761Y-51900000D01*
X109947619Y-51852380D01*
X110042857Y-51852380D01*
X110185714Y-51900000D01*
X110233333Y-51947619D01*
X110566666Y-51852380D02*
X111185714Y-51852380D01*
X110852380Y-52233333D01*
X110995238Y-52233333D01*
X111090476Y-52280952D01*
X111138095Y-52328571D01*
X111185714Y-52423809D01*
X111185714Y-52661904D01*
X111138095Y-52757142D01*
X111090476Y-52804761D01*
X110995238Y-52852380D01*
X110709523Y-52852380D01*
X110614285Y-52804761D01*
X110566666Y-52757142D01*
%TO.C,R5*%
X117208333Y-42552380D02*
X116875000Y-42076190D01*
X116636904Y-42552380D02*
X116636904Y-41552380D01*
X117017857Y-41552380D01*
X117113095Y-41600000D01*
X117160714Y-41647619D01*
X117208333Y-41742857D01*
X117208333Y-41885714D01*
X117160714Y-41980952D01*
X117113095Y-42028571D01*
X117017857Y-42076190D01*
X116636904Y-42076190D01*
X118113095Y-41552380D02*
X117636904Y-41552380D01*
X117589285Y-42028571D01*
X117636904Y-41980952D01*
X117732142Y-41933333D01*
X117970238Y-41933333D01*
X118065476Y-41980952D01*
X118113095Y-42028571D01*
X118160714Y-42123809D01*
X118160714Y-42361904D01*
X118113095Y-42457142D01*
X118065476Y-42504761D01*
X117970238Y-42552380D01*
X117732142Y-42552380D01*
X117636904Y-42504761D01*
X117589285Y-42457142D01*
%TO.C,C4*%
X100083333Y-43107142D02*
X100035714Y-43154761D01*
X99892857Y-43202380D01*
X99797619Y-43202380D01*
X99654761Y-43154761D01*
X99559523Y-43059523D01*
X99511904Y-42964285D01*
X99464285Y-42773809D01*
X99464285Y-42630952D01*
X99511904Y-42440476D01*
X99559523Y-42345238D01*
X99654761Y-42250000D01*
X99797619Y-42202380D01*
X99892857Y-42202380D01*
X100035714Y-42250000D01*
X100083333Y-42297619D01*
X100940476Y-42535714D02*
X100940476Y-43202380D01*
X100702380Y-42154761D02*
X100464285Y-42869047D01*
X101083333Y-42869047D01*
%TO.C,C7*%
X103308333Y-35557142D02*
X103260714Y-35604761D01*
X103117857Y-35652380D01*
X103022619Y-35652380D01*
X102879761Y-35604761D01*
X102784523Y-35509523D01*
X102736904Y-35414285D01*
X102689285Y-35223809D01*
X102689285Y-35080952D01*
X102736904Y-34890476D01*
X102784523Y-34795238D01*
X102879761Y-34700000D01*
X103022619Y-34652380D01*
X103117857Y-34652380D01*
X103260714Y-34700000D01*
X103308333Y-34747619D01*
X103641666Y-34652380D02*
X104308333Y-34652380D01*
X103879761Y-35652380D01*
%TO.C,R1*%
X122758333Y-49402380D02*
X122425000Y-48926190D01*
X122186904Y-49402380D02*
X122186904Y-48402380D01*
X122567857Y-48402380D01*
X122663095Y-48450000D01*
X122710714Y-48497619D01*
X122758333Y-48592857D01*
X122758333Y-48735714D01*
X122710714Y-48830952D01*
X122663095Y-48878571D01*
X122567857Y-48926190D01*
X122186904Y-48926190D01*
X123710714Y-49402380D02*
X123139285Y-49402380D01*
X123425000Y-49402380D02*
X123425000Y-48402380D01*
X123329761Y-48545238D01*
X123234523Y-48640476D01*
X123139285Y-48688095D01*
%TO.C,Y1*%
X95066309Y-46568690D02*
X95066309Y-47044880D01*
X94732976Y-46044880D02*
X95066309Y-46568690D01*
X95399642Y-46044880D01*
X96256785Y-47044880D02*
X95685357Y-47044880D01*
X95971071Y-47044880D02*
X95971071Y-46044880D01*
X95875833Y-46187738D01*
X95780595Y-46282976D01*
X95685357Y-46330595D01*
%TO.C,C5*%
X104708333Y-51882142D02*
X104660714Y-51929761D01*
X104517857Y-51977380D01*
X104422619Y-51977380D01*
X104279761Y-51929761D01*
X104184523Y-51834523D01*
X104136904Y-51739285D01*
X104089285Y-51548809D01*
X104089285Y-51405952D01*
X104136904Y-51215476D01*
X104184523Y-51120238D01*
X104279761Y-51025000D01*
X104422619Y-50977380D01*
X104517857Y-50977380D01*
X104660714Y-51025000D01*
X104708333Y-51072619D01*
X105613095Y-50977380D02*
X105136904Y-50977380D01*
X105089285Y-51453571D01*
X105136904Y-51405952D01*
X105232142Y-51358333D01*
X105470238Y-51358333D01*
X105565476Y-51405952D01*
X105613095Y-51453571D01*
X105660714Y-51548809D01*
X105660714Y-51786904D01*
X105613095Y-51882142D01*
X105565476Y-51929761D01*
X105470238Y-51977380D01*
X105232142Y-51977380D01*
X105136904Y-51929761D01*
X105089285Y-51882142D01*
%TO.C,C8*%
X101733333Y-38207142D02*
X101685714Y-38254761D01*
X101542857Y-38302380D01*
X101447619Y-38302380D01*
X101304761Y-38254761D01*
X101209523Y-38159523D01*
X101161904Y-38064285D01*
X101114285Y-37873809D01*
X101114285Y-37730952D01*
X101161904Y-37540476D01*
X101209523Y-37445238D01*
X101304761Y-37350000D01*
X101447619Y-37302380D01*
X101542857Y-37302380D01*
X101685714Y-37350000D01*
X101733333Y-37397619D01*
X102304761Y-37730952D02*
X102209523Y-37683333D01*
X102161904Y-37635714D01*
X102114285Y-37540476D01*
X102114285Y-37492857D01*
X102161904Y-37397619D01*
X102209523Y-37350000D01*
X102304761Y-37302380D01*
X102495238Y-37302380D01*
X102590476Y-37350000D01*
X102638095Y-37397619D01*
X102685714Y-37492857D01*
X102685714Y-37540476D01*
X102638095Y-37635714D01*
X102590476Y-37683333D01*
X102495238Y-37730952D01*
X102304761Y-37730952D01*
X102209523Y-37778571D01*
X102161904Y-37826190D01*
X102114285Y-37921428D01*
X102114285Y-38111904D01*
X102161904Y-38207142D01*
X102209523Y-38254761D01*
X102304761Y-38302380D01*
X102495238Y-38302380D01*
X102590476Y-38254761D01*
X102638095Y-38207142D01*
X102685714Y-38111904D01*
X102685714Y-37921428D01*
X102638095Y-37826190D01*
X102590476Y-37778571D01*
X102495238Y-37730952D01*
%TO.C,C9*%
X97375833Y-47449642D02*
X97328214Y-47497261D01*
X97185357Y-47544880D01*
X97090119Y-47544880D01*
X96947261Y-47497261D01*
X96852023Y-47402023D01*
X96804404Y-47306785D01*
X96756785Y-47116309D01*
X96756785Y-46973452D01*
X96804404Y-46782976D01*
X96852023Y-46687738D01*
X96947261Y-46592500D01*
X97090119Y-46544880D01*
X97185357Y-46544880D01*
X97328214Y-46592500D01*
X97375833Y-46640119D01*
X97852023Y-47544880D02*
X98042500Y-47544880D01*
X98137738Y-47497261D01*
X98185357Y-47449642D01*
X98280595Y-47306785D01*
X98328214Y-47116309D01*
X98328214Y-46735357D01*
X98280595Y-46640119D01*
X98232976Y-46592500D01*
X98137738Y-46544880D01*
X97947261Y-46544880D01*
X97852023Y-46592500D01*
X97804404Y-46640119D01*
X97756785Y-46735357D01*
X97756785Y-46973452D01*
X97804404Y-47068690D01*
X97852023Y-47116309D01*
X97947261Y-47163928D01*
X98137738Y-47163928D01*
X98232976Y-47116309D01*
X98280595Y-47068690D01*
X98328214Y-46973452D01*
%TO.C,R3*%
X110433333Y-56857380D02*
X110100000Y-56381190D01*
X109861904Y-56857380D02*
X109861904Y-55857380D01*
X110242857Y-55857380D01*
X110338095Y-55905000D01*
X110385714Y-55952619D01*
X110433333Y-56047857D01*
X110433333Y-56190714D01*
X110385714Y-56285952D01*
X110338095Y-56333571D01*
X110242857Y-56381190D01*
X109861904Y-56381190D01*
X110766666Y-55857380D02*
X111385714Y-55857380D01*
X111052380Y-56238333D01*
X111195238Y-56238333D01*
X111290476Y-56285952D01*
X111338095Y-56333571D01*
X111385714Y-56428809D01*
X111385714Y-56666904D01*
X111338095Y-56762142D01*
X111290476Y-56809761D01*
X111195238Y-56857380D01*
X110909523Y-56857380D01*
X110814285Y-56809761D01*
X110766666Y-56762142D01*
%TO.C,U2*%
X105765695Y-37798380D02*
X105765695Y-38607904D01*
X105813314Y-38703142D01*
X105860933Y-38750761D01*
X105956171Y-38798380D01*
X106146647Y-38798380D01*
X106241885Y-38750761D01*
X106289504Y-38703142D01*
X106337123Y-38607904D01*
X106337123Y-37798380D01*
X106765695Y-37893619D02*
X106813314Y-37846000D01*
X106908552Y-37798380D01*
X107146647Y-37798380D01*
X107241885Y-37846000D01*
X107289504Y-37893619D01*
X107337123Y-37988857D01*
X107337123Y-38084095D01*
X107289504Y-38226952D01*
X106718076Y-38798380D01*
X107337123Y-38798380D01*
%TO.C,C12*%
X96632142Y-49832142D02*
X96584523Y-49879761D01*
X96441666Y-49927380D01*
X96346428Y-49927380D01*
X96203571Y-49879761D01*
X96108333Y-49784523D01*
X96060714Y-49689285D01*
X96013095Y-49498809D01*
X96013095Y-49355952D01*
X96060714Y-49165476D01*
X96108333Y-49070238D01*
X96203571Y-48975000D01*
X96346428Y-48927380D01*
X96441666Y-48927380D01*
X96584523Y-48975000D01*
X96632142Y-49022619D01*
X97584523Y-49927380D02*
X97013095Y-49927380D01*
X97298809Y-49927380D02*
X97298809Y-48927380D01*
X97203571Y-49070238D01*
X97108333Y-49165476D01*
X97013095Y-49213095D01*
X97965476Y-49022619D02*
X98013095Y-48975000D01*
X98108333Y-48927380D01*
X98346428Y-48927380D01*
X98441666Y-48975000D01*
X98489285Y-49022619D01*
X98536904Y-49117857D01*
X98536904Y-49213095D01*
X98489285Y-49355952D01*
X97917857Y-49927380D01*
X98536904Y-49927380D01*
%TO.C,C13*%
X96532142Y-51507142D02*
X96484523Y-51554761D01*
X96341666Y-51602380D01*
X96246428Y-51602380D01*
X96103571Y-51554761D01*
X96008333Y-51459523D01*
X95960714Y-51364285D01*
X95913095Y-51173809D01*
X95913095Y-51030952D01*
X95960714Y-50840476D01*
X96008333Y-50745238D01*
X96103571Y-50650000D01*
X96246428Y-50602380D01*
X96341666Y-50602380D01*
X96484523Y-50650000D01*
X96532142Y-50697619D01*
X97484523Y-51602380D02*
X96913095Y-51602380D01*
X97198809Y-51602380D02*
X97198809Y-50602380D01*
X97103571Y-50745238D01*
X97008333Y-50840476D01*
X96913095Y-50888095D01*
X97817857Y-50602380D02*
X98436904Y-50602380D01*
X98103571Y-50983333D01*
X98246428Y-50983333D01*
X98341666Y-51030952D01*
X98389285Y-51078571D01*
X98436904Y-51173809D01*
X98436904Y-51411904D01*
X98389285Y-51507142D01*
X98341666Y-51554761D01*
X98246428Y-51602380D01*
X97960714Y-51602380D01*
X97865476Y-51554761D01*
X97817857Y-51507142D01*
%TO.C,U1*%
X115263095Y-57777380D02*
X115263095Y-58586904D01*
X115310714Y-58682142D01*
X115358333Y-58729761D01*
X115453571Y-58777380D01*
X115644047Y-58777380D01*
X115739285Y-58729761D01*
X115786904Y-58682142D01*
X115834523Y-58586904D01*
X115834523Y-57777380D01*
X116834523Y-58777380D02*
X116263095Y-58777380D01*
X116548809Y-58777380D02*
X116548809Y-57777380D01*
X116453571Y-57920238D01*
X116358333Y-58015476D01*
X116263095Y-58063095D01*
%TO.C,C1*%
X117558333Y-46573142D02*
X117510714Y-46620761D01*
X117367857Y-46668380D01*
X117272619Y-46668380D01*
X117129761Y-46620761D01*
X117034523Y-46525523D01*
X116986904Y-46430285D01*
X116939285Y-46239809D01*
X116939285Y-46096952D01*
X116986904Y-45906476D01*
X117034523Y-45811238D01*
X117129761Y-45716000D01*
X117272619Y-45668380D01*
X117367857Y-45668380D01*
X117510714Y-45716000D01*
X117558333Y-45763619D01*
X118510714Y-46668380D02*
X117939285Y-46668380D01*
X118225000Y-46668380D02*
X118225000Y-45668380D01*
X118129761Y-45811238D01*
X118034523Y-45906476D01*
X117939285Y-45954095D01*
D12*
%TO.C,FB1*%
X102657600Y-50666279D02*
X102657600Y-50340721D01*
X101637600Y-50666279D02*
X101637600Y-50340721D01*
%TO.C,J2*%
X106670000Y-26710000D02*
X107730000Y-26710000D01*
X105670000Y-28830000D02*
X99610000Y-28830000D01*
X105670000Y-26710000D02*
X105670000Y-28830000D01*
X107730000Y-26710000D02*
X107730000Y-27770000D01*
X105670000Y-26710000D02*
X99610000Y-26710000D01*
X99610000Y-26710000D02*
X99610000Y-28830000D01*
%TO.C,C10*%
X112387600Y-41566665D02*
X112387600Y-41798335D01*
X113107600Y-41566665D02*
X113107600Y-41798335D01*
%TO.C,R4*%
X100843959Y-35096000D02*
X101151241Y-35096000D01*
X100843959Y-34336000D02*
X101151241Y-34336000D01*
%TO.C,C2*%
X122060000Y-53415580D02*
X122060000Y-53134420D01*
X121040000Y-53415580D02*
X121040000Y-53134420D01*
%TO.C,C6*%
X100237600Y-41081835D02*
X100237600Y-40850165D01*
X100957600Y-41081835D02*
X100957600Y-40850165D01*
%TO.C,C11*%
X100140000Y-45365835D02*
X100140000Y-45134165D01*
X100860000Y-45365835D02*
X100860000Y-45134165D01*
%TO.C,D1*%
X125232600Y-54016000D02*
X125232600Y-51731000D01*
X123762600Y-51731000D02*
X123762600Y-54016000D01*
X125232600Y-51731000D02*
X123762600Y-51731000D01*
%TO.C,R2*%
X106231359Y-56710000D02*
X106538641Y-56710000D01*
X106231359Y-55950000D02*
X106538641Y-55950000D01*
%TO.C,C3*%
X110090580Y-51335000D02*
X109809420Y-51335000D01*
X110090580Y-50315000D02*
X109809420Y-50315000D01*
%TO.C,R5*%
X116180000Y-42186359D02*
X116180000Y-42493641D01*
X115420000Y-42186359D02*
X115420000Y-42493641D01*
%TO.C,C4*%
X97782500Y-42733335D02*
X97782500Y-42501665D01*
X98502500Y-42733335D02*
X98502500Y-42501665D01*
%TO.C,J3*%
X115870000Y-26710000D02*
X109810000Y-26710000D01*
X116870000Y-26710000D02*
X117930000Y-26710000D01*
X115870000Y-26710000D02*
X115870000Y-28830000D01*
X109810000Y-26710000D02*
X109810000Y-28830000D01*
X115870000Y-28830000D02*
X109810000Y-28830000D01*
X117930000Y-26710000D02*
X117930000Y-27770000D01*
%TO.C,C7*%
X103814265Y-35931000D02*
X104045935Y-35931000D01*
X103814265Y-36651000D02*
X104045935Y-36651000D01*
%TO.C,R1*%
X124877600Y-50062359D02*
X124877600Y-50369641D01*
X124117600Y-50062359D02*
X124117600Y-50369641D01*
%TO.C,Y1*%
X97267500Y-41650000D02*
X93967500Y-41650000D01*
X93967500Y-41650000D02*
X93967500Y-45650000D01*
%TO.C,J1*%
X104800000Y-60210000D02*
X110860000Y-60210000D01*
X102740000Y-60210000D02*
X102740000Y-59150000D01*
X110860000Y-60210000D02*
X110860000Y-58090000D01*
X103800000Y-60210000D02*
X102740000Y-60210000D01*
X104800000Y-60210000D02*
X104800000Y-58090000D01*
X104800000Y-58090000D02*
X110860000Y-58090000D01*
%TO.C,C5*%
X104631765Y-49856000D02*
X104863435Y-49856000D01*
X104631765Y-50576000D02*
X104863435Y-50576000D01*
%TO.C,C8*%
X103831765Y-37826000D02*
X104063435Y-37826000D01*
X103831765Y-37106000D02*
X104063435Y-37106000D01*
%TO.C,SW1*%
X95520000Y-37900000D02*
X95520000Y-38100000D01*
X93680000Y-39950000D02*
X94470000Y-39950000D01*
X95520000Y-34900000D02*
X95520000Y-36600000D01*
X92670000Y-33650000D02*
X92670000Y-39350000D01*
X94470000Y-33050000D02*
X93680000Y-33050000D01*
%TO.C,C9*%
X97782500Y-45083335D02*
X97782500Y-44851665D01*
X98502500Y-45083335D02*
X98502500Y-44851665D01*
%TO.C,R3*%
X108793641Y-56735000D02*
X108486359Y-56735000D01*
X108793641Y-55975000D02*
X108486359Y-55975000D01*
%TO.C,U2*%
X110137600Y-47806000D02*
X110137600Y-47356000D01*
X109687600Y-40586000D02*
X110137600Y-40586000D01*
X102917600Y-41036000D02*
X101627600Y-41036000D01*
X102917600Y-40586000D02*
X102917600Y-41036000D01*
X103367600Y-40586000D02*
X102917600Y-40586000D01*
X103367600Y-47806000D02*
X102917600Y-47806000D01*
X102917600Y-47806000D02*
X102917600Y-47356000D01*
X109687600Y-47806000D02*
X110137600Y-47806000D01*
X110137600Y-40586000D02*
X110137600Y-41036000D01*
%TO.C,C12*%
X100045935Y-49106000D02*
X99814265Y-49106000D01*
X100045935Y-49826000D02*
X99814265Y-49826000D01*
D10*
%TO.C,J4*%
X120567600Y-44046000D02*
X120567600Y-44771000D01*
X126692600Y-46821000D02*
X127142600Y-46821000D01*
X120992600Y-44771000D02*
X120992600Y-45771000D01*
X122742600Y-47121000D02*
X124142600Y-47121000D01*
X126542600Y-47121000D02*
X126692600Y-47121000D01*
X126692600Y-47121000D02*
X126692600Y-46821000D01*
X120992600Y-41171000D02*
X120992600Y-40171000D01*
X126692600Y-38821000D02*
X126542600Y-38821000D01*
X126692600Y-39121000D02*
X126692600Y-38821000D01*
X124142600Y-38821000D02*
X122742600Y-38821000D01*
X127142600Y-39121000D02*
X126692600Y-39121000D01*
X120567600Y-44771000D02*
X120992600Y-44771000D01*
D12*
%TO.C,C13*%
X100113435Y-51326000D02*
X99881765Y-51326000D01*
X100113435Y-50606000D02*
X99881765Y-50606000D01*
%TO.C,U1*%
X112735000Y-55055000D02*
X113995000Y-55055000D01*
X119555000Y-49045000D02*
X119555000Y-55055000D01*
X112735000Y-51295000D02*
X112735000Y-55055000D01*
X119555000Y-55055000D02*
X118295000Y-55055000D01*
%TO.C,C1*%
X116357020Y-47206000D02*
X116638180Y-47206000D01*
X116357020Y-48226000D02*
X116638180Y-48226000D01*
%TD*%
M02*
