M48
; DRILL file {KiCad (6.0.8)} date Thu Oct 13 10:33:22 2022
; FORMAT={-:-/ absolute / metric / decimal}
; #@! TF.CreationDate,2022-10-13T10:33:22+07:00
; #@! TF.GenerationSoftware,Kicad,Pcbnew,(6.0.8)
; #@! TF.FileFunction,MixedPlating,1,2
FMAT,2
METRIC
; #@! TA.AperFunction,Plated,PTH,ViaDrill
T1C0.400
; #@! TA.AperFunction,Plated,PTH,ComponentDrill
T2C0.550
; #@! TA.AperFunction,Plated,PTH,ComponentDrill
T3C0.800
; #@! TA.AperFunction,Plated,PTH,ComponentDrill
T4C0.850
; #@! TA.AperFunction,NonPlated,NPTH,ComponentDrill
T5C0.800
; #@! TA.AperFunction,NonPlated,NPTH,ComponentDrill
T6C0.900
; #@! TA.AperFunction,NonPlated,NPTH,ComponentDrill
T7C2.200
%
G90
G05
T1
X93.7Y-46.225
X96.975Y-41.3
X98.225Y-33.4
X99.001Y-44.245
X99.25Y-48.45
X99.275Y-41.725
X99.4Y-52.0
X101.45Y-40.375
X103.75Y-45.125
X104.35Y-41.325
X105.15Y-57.175
X106.325Y-50.375
X106.65Y-57.175
X108.425Y-54.9
X108.725Y-47.0
X108.775Y-41.573
X109.924Y-54.875
X112.748Y-41.115
X113.625Y-42.271
X118.475Y-47.4
X118.5Y-48.275
X118.575Y-51.725
X119.6Y-51.7
X120.3Y-41.5
X122.8Y-52.45
X124.5Y-48.775
T3
X100.67Y-27.77
X102.67Y-27.77
X103.8Y-59.15
X104.67Y-27.77
X105.8Y-59.15
X106.67Y-27.77
X107.8Y-59.15
X109.8Y-59.15
X110.87Y-27.77
X112.87Y-27.77
X114.87Y-27.77
X116.87Y-27.77
T5
X122.593Y-40.471
X122.593Y-45.471
T6
X94.07Y-35.0
X94.07Y-38.0
T7
X95.87Y-57.77
X95.91Y-29.032
X123.62Y-29.02
X123.62Y-57.77
T2
G00X125.018Y-39.096
M15
G01X125.668Y-39.096
M16
G05
G00X125.018Y-46.846
M15
G01X125.668Y-46.846
M16
G05
T4
G00X121.268Y-39.246
M15
G01X121.818Y-39.246
M16
G05
G00X121.268Y-46.696
M15
G01X121.818Y-46.696
M16
G05
T0
M30
