%TF.GenerationSoftware,KiCad,Pcbnew,(6.0.8)*%
%TF.CreationDate,2022-10-13T10:33:28+07:00*%
%TF.ProjectId,1_trial,315f7472-6961-46c2-9e6b-696361645f70,rev?*%
%TF.SameCoordinates,Original*%
%TF.FileFunction,Paste,Top*%
%TF.FilePolarity,Positive*%
%FSLAX46Y46*%
G04 Gerber Fmt 4.6, Leading zero omitted, Abs format (unit mm)*
G04 Created by KiCad (PCBNEW (6.0.8)) date 2022-10-13 10:33:28*
%MOMM*%
%LPD*%
G01*
G04 APERTURE LIST*
G04 Aperture macros list*
%AMRoundRect*
0 Rectangle with rounded corners*
0 $1 Rounding radius*
0 $2 $3 $4 $5 $6 $7 $8 $9 X,Y pos of 4 corners*
0 Add a 4 corners polygon primitive as box body*
4,1,4,$2,$3,$4,$5,$6,$7,$8,$9,$2,$3,0*
0 Add four circle primitives for the rounded corners*
1,1,$1+$1,$2,$3*
1,1,$1+$1,$4,$5*
1,1,$1+$1,$6,$7*
1,1,$1+$1,$8,$9*
0 Add four rect primitives between the rounded corners*
20,1,$1+$1,$2,$3,$4,$5,0*
20,1,$1+$1,$4,$5,$6,$7,0*
20,1,$1+$1,$6,$7,$8,$9,0*
20,1,$1+$1,$8,$9,$2,$3,0*%
G04 Aperture macros list end*
%ADD10RoundRect,0.218750X0.256250X-0.218750X0.256250X0.218750X-0.256250X0.218750X-0.256250X-0.218750X0*%
%ADD11RoundRect,0.155000X-0.155000X0.212500X-0.155000X-0.212500X0.155000X-0.212500X0.155000X0.212500X0*%
%ADD12RoundRect,0.135000X-0.135000X-0.185000X0.135000X-0.185000X0.135000X0.185000X-0.135000X0.185000X0*%
%ADD13RoundRect,0.225000X0.250000X-0.225000X0.250000X0.225000X-0.250000X0.225000X-0.250000X-0.225000X0*%
%ADD14RoundRect,0.155000X0.155000X-0.212500X0.155000X0.212500X-0.155000X0.212500X-0.155000X-0.212500X0*%
%ADD15RoundRect,0.218750X-0.256250X0.218750X-0.256250X-0.218750X0.256250X-0.218750X0.256250X0.218750X0*%
%ADD16RoundRect,0.225000X0.225000X0.250000X-0.225000X0.250000X-0.225000X-0.250000X0.225000X-0.250000X0*%
%ADD17RoundRect,0.135000X-0.185000X0.135000X-0.185000X-0.135000X0.185000X-0.135000X0.185000X0.135000X0*%
%ADD18RoundRect,0.155000X-0.212500X-0.155000X0.212500X-0.155000X0.212500X0.155000X-0.212500X0.155000X0*%
%ADD19R,1.200000X1.400000*%
%ADD20R,0.800000X1.000000*%
%ADD21R,1.500000X0.700000*%
%ADD22RoundRect,0.135000X0.135000X0.185000X-0.135000X0.185000X-0.135000X-0.185000X0.135000X-0.185000X0*%
%ADD23RoundRect,0.075000X-0.662500X-0.075000X0.662500X-0.075000X0.662500X0.075000X-0.662500X0.075000X0*%
%ADD24RoundRect,0.075000X-0.075000X-0.662500X0.075000X-0.662500X0.075000X0.662500X-0.075000X0.662500X0*%
%ADD25RoundRect,0.155000X0.212500X0.155000X-0.212500X0.155000X-0.212500X-0.155000X0.212500X-0.155000X0*%
%ADD26R,1.300000X0.450000*%
%ADD27R,1.500000X2.000000*%
%ADD28R,3.800000X2.000000*%
%ADD29RoundRect,0.225000X-0.225000X-0.250000X0.225000X-0.250000X0.225000X0.250000X-0.225000X0.250000X0*%
G04 APERTURE END LIST*
D10*
%TO.C,FB1*%
X102147600Y-51291000D03*
X102147600Y-49716000D03*
%TD*%
D11*
%TO.C,C10*%
X112747600Y-41115000D03*
X112747600Y-42250000D03*
%TD*%
D12*
%TO.C,R4*%
X101507600Y-34716000D03*
X100487600Y-34716000D03*
%TD*%
D13*
%TO.C,C2*%
X121550000Y-52500000D03*
X121550000Y-54050000D03*
%TD*%
D14*
%TO.C,C6*%
X100597600Y-41533500D03*
X100597600Y-40398500D03*
%TD*%
%TO.C,C11*%
X100500000Y-44682500D03*
X100500000Y-45817500D03*
%TD*%
D15*
%TO.C,D1*%
X124497600Y-52428500D03*
X124497600Y-54003500D03*
%TD*%
D12*
%TO.C,R2*%
X105875000Y-56330000D03*
X106895000Y-56330000D03*
%TD*%
D16*
%TO.C,C3*%
X110725000Y-50825000D03*
X109175000Y-50825000D03*
%TD*%
D17*
%TO.C,R5*%
X115800000Y-41830000D03*
X115800000Y-42850000D03*
%TD*%
D14*
%TO.C,C4*%
X98142500Y-42050000D03*
X98142500Y-43185000D03*
%TD*%
D18*
%TO.C,C7*%
X103362600Y-36291000D03*
X104497600Y-36291000D03*
%TD*%
D17*
%TO.C,R1*%
X124497600Y-49706000D03*
X124497600Y-50726000D03*
%TD*%
D19*
%TO.C,Y1*%
X96467500Y-42550000D03*
X96467500Y-44750000D03*
X94767500Y-44750000D03*
X94767500Y-42550000D03*
%TD*%
D18*
%TO.C,C5*%
X104180100Y-50216000D03*
X105315100Y-50216000D03*
%TD*%
%TO.C,C8*%
X103380100Y-37466000D03*
X104515100Y-37466000D03*
%TD*%
D20*
%TO.C,SW1*%
X95180000Y-32850000D03*
X95180000Y-40150000D03*
X92970000Y-32850000D03*
X92970000Y-40150000D03*
D21*
X95830000Y-34250000D03*
X95830000Y-37250000D03*
X95830000Y-38750000D03*
%TD*%
D14*
%TO.C,C9*%
X98142500Y-44400000D03*
X98142500Y-45535000D03*
%TD*%
D22*
%TO.C,R3*%
X109150000Y-56355000D03*
X108130000Y-56355000D03*
%TD*%
D23*
%TO.C,U2*%
X102365100Y-41446000D03*
X102365100Y-41946000D03*
X102365100Y-42446000D03*
X102365100Y-42946000D03*
X102365100Y-43446000D03*
X102365100Y-43946000D03*
X102365100Y-44446000D03*
X102365100Y-44946000D03*
X102365100Y-45446000D03*
X102365100Y-45946000D03*
X102365100Y-46446000D03*
X102365100Y-46946000D03*
D24*
X103777600Y-48358500D03*
X104277600Y-48358500D03*
X104777600Y-48358500D03*
X105277600Y-48358500D03*
X105777600Y-48358500D03*
X106277600Y-48358500D03*
X106777600Y-48358500D03*
X107277600Y-48358500D03*
X107777600Y-48358500D03*
X108277600Y-48358500D03*
X108777600Y-48358500D03*
X109277600Y-48358500D03*
D23*
X110690100Y-46946000D03*
X110690100Y-46446000D03*
X110690100Y-45946000D03*
X110690100Y-45446000D03*
X110690100Y-44946000D03*
X110690100Y-44446000D03*
X110690100Y-43946000D03*
X110690100Y-43446000D03*
X110690100Y-42946000D03*
X110690100Y-42446000D03*
X110690100Y-41946000D03*
X110690100Y-41446000D03*
D24*
X109277600Y-40033500D03*
X108777600Y-40033500D03*
X108277600Y-40033500D03*
X107777600Y-40033500D03*
X107277600Y-40033500D03*
X106777600Y-40033500D03*
X106277600Y-40033500D03*
X105777600Y-40033500D03*
X105277600Y-40033500D03*
X104777600Y-40033500D03*
X104277600Y-40033500D03*
X103777600Y-40033500D03*
%TD*%
D25*
%TO.C,C12*%
X100497600Y-49466000D03*
X99362600Y-49466000D03*
%TD*%
D26*
%TO.C,J4*%
X121492600Y-41671000D03*
X121492600Y-42321000D03*
X121492600Y-42971000D03*
X121492600Y-43621000D03*
X121492600Y-44271000D03*
%TD*%
D25*
%TO.C,C13*%
X100565100Y-50966000D03*
X99430100Y-50966000D03*
%TD*%
D27*
%TO.C,U1*%
X118445000Y-49995000D03*
D28*
X116145000Y-56295000D03*
D27*
X116145000Y-49995000D03*
X113845000Y-49995000D03*
%TD*%
D29*
%TO.C,C1*%
X115722600Y-47716000D03*
X117272600Y-47716000D03*
%TD*%
M02*
